#!OML:ASF E:\Steps\Project 1\Capture day 1\Session 2\Subject.ASF
:FULLY-SPECIFIED
:DEGREES
322
root 14.0186 16.473 14.1573 -152.517 -0.229322 173.037
lowerback -17.5273 -1.3843 -9.67954
upperback 2.63126 0.374075 -1.98611
thorax 12.8587 -0.517557 3.35392
lowerneck -3.73629 -0.152904 -0.014545
upperneck 16.4897 -1.53367 3.03445
head 5.60668 -0.864485 0.830707
rclavicle 4.52235e-015 -6.16232e-015
rhumerus -29.949 -11.637 -83.6134
rradius 41.5363
rwrist -6.209
rhand -7.98757 -412.991
rfingers 7.12502
rthumb 17.9208 -82.1852
lclavicle 4.52235e-015 -6.16232e-015
lhumerus -22.0794 3.20242 77.8737
lradius 20.8521
lwrist -5.43713
lhand -20.9871 -11.8543
lfingers 7.12502
lthumb 5.38677 18.0573
rfemur -6.83461 9.72706 9.20053
rtibia 18.1844
rfoot -0.370817 -6.82994
rtoes -28.482
lfemur -76.1111 -2.46658 -19.69
ltibia 50.2392
lfoot -0.366505 -5.77976
ltoes -31.0619
323
root 13.9611 16.5585 14.0405 -152.392 0.37596 173.554
lowerback -17.1838 -1.04273 -9.51347
upperback 2.62002 0.758881 -2.02732
thorax 12.5899 -0.311717 3.32345
lowerneck -3.71413 -0.345812 0.0333003
upperneck 16.5395 -1.84708 3.21767
head 5.62528 -1.00593 0.861159
rclavicle 3.97569e-015 6.95746e-015
rhumerus -30.2487 -11.2856 -83.6129
rradius 41.8278
rwrist -6.64721
rhand -7.44181 -414.399
rfingers 7.12502
rthumb 18.4459 -83.5444
lclavicle 3.97569e-015 6.95746e-015
lhumerus -21.7664 2.65578 78.0322
lradius 21.0809
lwrist -4.98442
lhand -21.232 -11.8045
lfingers 7.12502
lthumb 5.15036 18.1129
rfemur -7.06421 10.1449 9.11018
rtibia 18.0628
rfoot 1.6137 -6.29769
rtoes -27.2979
lfemur -75.1336 -2.05272 -19.3838
ltibia 49.2563
lfoot -0.516136 -5.34224
ltoes -31.4068
324
root 13.93 16.6372 14.0088 -150.625 0.0124776 173.351
lowerback -17.6451 -1.3831 -10.1169
upperback 2.25467 0.442936 -1.99854
thorax 12.4814 -0.496079 3.61008
lowerneck -3.55036 -0.229063 0.258034
upperneck 16.124 -1.64087 3.13145
head 5.46232 -0.891066 0.811324
rclavicle -2.18663e-015 3.598e-014
rhumerus -29.9516 -10.7592 -83.732
rradius 41.9275
rwrist -7.0777
rhand -6.72688 -415.794
rfingers 7.12502
rthumb 19.1335 -84.8731
lclavicle -2.18663e-015 3.598e-014
lhumerus -21.0363 2.66567 78.1181
lradius 21.3049
lwrist -4.56102
lhand -21.2672 -11.5801
lfingers 7.12502
lthumb 5.11638 18.3381
rfemur -9.08901 9.91351 8.48681
rtibia 18.1374
rfoot 3.02381 -6.89974
rtoes -27.711
lfemur -76.6555 -2.44403 -19.6471
ltibia 49.1542
lfoot -0.480891 -5.67008
ltoes -30.0525
325
root 13.8752 16.7213 13.9141 -150 0.516946 173.673
lowerback -17.8998 -1.30196 -10.1334
upperback 2.24411 0.587861 -2.0288
thorax 12.5985 -0.435286 3.62588
lowerneck -3.22411 -0.319821 0.190325
upperneck 15.4147 -1.71713 3.37443
head 5.18978 -0.911271 0.897628
rclavicle 1.12313e-014 1.43125e-014
rhumerus -29.6861 -10.1638 -83.8788
rradius 41.8159
rwrist -7.12486
rhand -6.80246 -416.457
rfingers 7.12502
rthumb 19.0608 -85.5433
lclavicle 1.12313e-014 1.43125e-014
lhumerus -20.6217 2.41296 78.2343
lradius 21.8533
lwrist -3.60044
lhand -20.9955 -11.2416
lfingers 7.12502
lthumb 5.37873 18.6701
rfemur -10.0173 9.95974 8.08217
rtibia 18.0941
rfoot 5.35374 -6.11331
rtoes -22.3884
lfemur -76.3103 -2.19801 -19.4601
ltibia 48.1713
lfoot -0.522075 -5.27308
ltoes -28.0997
326
root 13.8236 16.8082 13.8218 -149.633 0.846332 174.037
lowerback -17.8385 -1.26193 -10.0646
upperback 2.28209 0.622545 -2.00778
thorax 12.6014 -0.414798 3.62056
lowerneck -3.65645 -0.236429 -0.0633414
upperneck 15.9617 -1.67908 3.62788
head 5.43587 -0.891091 1.01767
rclavicle 1.09332e-014 -6.93758e-014
rhumerus -29.5868 -9.62308 -83.9872
rradius 41.8198
rwrist -6.86545
rhand -7.07885 -415.6
rfingers 7.12502
rthumb 18.795 -84.7122
lclavicle 1.09332e-014 -6.93758e-014
lhumerus -20.2966 2.05137 78.3657
lradius 22.368
lwrist -2.96368
lhand -20.9896 -11.2259
lfingers 7.12502
lthumb 5.38441 18.6857
rfemur -10.7184 10.0063 7.91887
rtibia 18.1786
rfoot 6.70934 -5.58018
rtoes -22.8398
lfemur -75.6338 -2.04631 -19.2133
ltibia 47.0829
lfoot -0.53953 -4.93534
ltoes -26.6449
327
root 13.7734 16.9017 13.7332 -149.357 0.94071 174.161
lowerback -17.2942 -1.27894 -10.1466
upperback 2.166 0.534185 -2.01377
thorax 12.1587 -0.438725 3.63702
lowerneck -3.89618 -0.398154 -0.171508
upperneck 16.4097 -1.98226 3.82001
head 5.62541 -1.03791 1.07544
rclavicle -1.39149e-015 3.49861e-014
rhumerus -30.0098 -9.15924 -83.973
rradius 42.3754
rwrist -6.80387
rhand -6.6704 -415.117
rfingers 7.12502
rthumb 19.1878 -84.1908
lclavicle -1.39149e-015 3.49861e-014
lhumerus -20.1566 1.7062 78.4532
lradius 22.8142
lwrist -2.62238
lhand -21.0997 -11.1804
lfingers 7.12502
lthumb 5.27811 18.7339
rfemur -11.238 10.0125 7.65131
rtibia 18.2406
rfoot 7.61443 -5.45146
rtoes -24.8438
lfemur -74.868 -2.26695 -19.1034
ltibia 46.0491
lfoot -0.616402 -4.71687
ltoes -26.297
